<svg width="35" height="34" viewBox="0 0 35 34" fill="none" xmlns="http://www.w3.org/2000/svg">
<path d="M27.0596 7.31111L29.8474 7.22302V17.0886H26.4844L27.0596 7.31111Z" fill="#FFA132"/>
<ellipse cx="18.475" cy="24.3116" rx="3.31877" ry="4.2281" fill="#FFA132"/>
<path d="M12.3866 10.5262C12.3866 12.8613 10.768 12.464 8.93511 12.464C7.1022 12.464 5.88184 11.8474 5.88184 11.0106C5.88184 8.6755 7.23495 8.36806 9.06786 8.36806C10.9008 8.36806 12.3866 8.19104 12.3866 10.5262Z" fill="#FFA132"/>
<path d="M4.23293 2.93944C4.06958 3.03048 3.85397 3.22558 3.74289 3.37515L3.54688 3.65479V7.14049V10.6327L3.71675 11.0684C4.33094 12.6357 5.65077 13.6762 7.23849 13.8388L7.66319 13.8843L7.69586 21.7531L7.72853 29.622L7.87227 29.8561C7.95721 29.9862 8.1467 30.1748 8.29697 30.2788C8.53872 30.4479 8.62366 30.4674 9.06797 30.4674C9.50573 30.4674 9.59721 30.4479 9.82589 30.2918C9.9631 30.1943 10.1526 30.0057 10.2441 29.8691L10.4074 29.6285L10.4401 21.7596L10.4727 13.8843L10.8974 13.8388C12.5244 13.6762 13.9487 12.5121 14.4453 10.9579C14.5891 10.5091 14.5891 10.4376 14.5891 7.08196V3.66129L14.4126 3.40767C14.1252 3.00447 13.8246 2.83538 13.3215 2.80937C12.7857 2.78336 12.4002 2.95895 12.1062 3.37515L11.9102 3.65479L11.8775 5.28708L11.8448 6.92589H11.1588H10.4727L10.4401 5.29359C10.4074 3.6873 10.4074 3.66129 10.2441 3.42717C9.96964 3.01747 9.63641 2.83538 9.13984 2.80937C8.60406 2.78336 8.21857 2.95895 7.92454 3.37515L7.72853 3.65479L7.69586 5.28708L7.66319 6.92589H6.97714H6.29109L6.25842 5.29359L6.22575 3.66129L6.04933 3.40767C5.76185 3.00447 5.46129 2.83538 4.95818 2.80937C4.59882 2.78986 4.47468 2.81588 4.23293 2.93944ZM11.8122 9.88483C11.8122 10.2815 11.492 10.7172 11.0281 10.9644C10.819 11.0749 10.6361 11.0879 9.06797 11.0879C7.42144 11.0879 7.32343 11.0814 7.07515 10.9449C6.63085 10.7107 6.32376 10.275 6.32376 9.88483V9.68974H9.06797H11.8122V9.88483Z" fill="white"/>
<path d="M17.7772 2.93944C17.6138 3.03048 17.3982 3.22558 17.2872 3.37515L17.0911 3.65479L17.0585 10.9058L17.0258 18.1569L16.477 18.3195C15.1049 18.7097 14.079 19.5291 13.5041 20.6801C13.001 21.7011 12.916 22.1238 12.916 23.6065C12.916 24.6926 12.9356 24.9527 13.0532 25.4274C13.6935 27.9442 15.1114 29.661 17.0911 30.3178C17.4766 30.4414 17.6857 30.4674 18.4306 30.4674C19.1754 30.4674 19.3845 30.4414 19.77 30.3178C21.7498 29.661 23.1676 27.9442 23.8079 25.4274C23.9255 24.9527 23.9451 24.6926 23.9451 23.6065C23.9451 22.514 23.9255 22.2669 23.8014 21.8182C23.3113 20.0168 22.1418 18.8202 20.3842 18.3195L19.8353 18.1569L19.8027 10.9123L19.77 3.66129L19.5936 3.40767C19.3061 3.00447 19.0056 2.83539 18.5024 2.80937C18.1431 2.78986 18.0189 2.81588 17.7772 2.93944ZM19.7177 21.0053C20.4495 21.2524 20.9265 21.8182 21.1094 22.6376C21.2336 23.2034 21.1617 24.621 20.9788 25.1998C20.639 26.2664 19.9922 27.1638 19.293 27.515C18.8553 27.7361 18.0124 27.7426 17.5812 27.5215C16.8363 27.1378 16.2352 26.3054 15.8693 25.1673C15.7386 24.7381 15.719 24.5495 15.719 23.6065C15.719 22.5595 15.7256 22.527 15.9085 22.1238C16.2352 21.4215 16.9017 20.9663 17.7772 20.8492C17.7772 20.8492 19.3126 20.8752 19.7177 21.0053Z" fill="white"/>
<path d="M30.3748 2.91342C29.5384 3.34914 28.2447 4.53271 27.4476 5.57973C25.4613 8.21352 24.3048 11.9333 24.037 16.5831C23.9389 18.2869 23.9847 18.5406 24.4355 18.9893C24.8733 19.425 24.9909 19.4445 27.4737 19.4445H29.6038V24.4715V29.5049L29.7541 29.7781C29.8325 29.9341 30.0285 30.1488 30.1853 30.2658C30.4401 30.4479 30.5054 30.4674 30.9694 30.4674C31.4137 30.4674 31.5051 30.4479 31.7338 30.2918C31.871 30.1943 32.0605 30.0057 32.152 29.8691L32.3153 29.6285V16.6481V3.66129L32.1389 3.40767C31.8514 2.99796 31.5509 2.83538 31.0478 2.80937C30.7211 2.79637 30.5577 2.81588 30.3748 2.91342ZM29.6038 12.0309V16.6481H28.2186H26.84L26.8857 15.9783C27.0033 14.1899 27.4411 12.0309 28.0095 10.4376C28.3885 9.38409 29.4078 7.41363 29.5711 7.41363C29.5907 7.41363 29.6038 9.48814 29.6038 12.0309Z" fill="white"/>
</svg>
